<svg width="25" height="24" viewBox="0 0 25 24" fill="none" xmlns="http://www.w3.org/2000/svg">
<path fill-rule="evenodd" clip-rule="evenodd" d="M12.5 2C6.97715 2 2.5 6.47715 2.5 12C2.5 13.6451 2.89724 15.1974 3.60104 16.5662C3.73427 16.8254 3.76438 17.1275 3.66731 17.4022L2.73903 20.0292C2.40294 20.9804 3.31914 21.8966 4.27027 21.5605L6.79286 20.6691C7.07856 20.5681 7.39316 20.6048 7.65817 20.7518C9.09275 21.5471 10.7435 22 12.5 22C18.0228 22 22.5 17.5228 22.5 12C22.5 6.47715 18.0228 2 12.5 2Z" fill="#333333"/>
<circle opacity="0.8" cx="7.5498" cy="12.0498" r="1.25" fill="white"/>
<circle opacity="0.8" cx="12.5498" cy="12.0498" r="1.25" fill="white"/>
<circle opacity="0.8" cx="17.5498" cy="12.0498" r="1.25" fill="white"/>
</svg>
