<svg width="25" height="24" viewBox="0 0 25 24" fill="none" xmlns="http://www.w3.org/2000/svg">
<path d="M12.5 2C18.0228 2 22.5 6.47715 22.5 12C22.5 17.5228 18.0228 22 12.5 22C10.7438 22 9.09384 21.5464 7.65953 20.7511C7.39452 20.6042 7.07991 20.5675 6.79421 20.6685L4.27051 21.5605C3.31937 21.8966 2.40317 20.9804 2.73926 20.0293L3.66852 17.3984C3.76551 17.1238 3.73544 16.8218 3.60227 16.5628C2.8988 15.1947 2.5 13.6442 2.5 12C2.5 6.47715 6.97715 2 12.5 2Z" fill="#C8C8C8"/>
<circle opacity="0.7" cx="7.5498" cy="12.0508" r="1.25" fill="#FDFDFD"/>
<circle opacity="0.7" cx="12.5498" cy="12.0508" r="1.25" fill="#FDFDFD"/>
<circle opacity="0.7" cx="17.5498" cy="12.0508" r="1.25" fill="#FDFDFD"/>
</svg>
