<svg width="45" height="45" viewBox="0 0 45 45" fill="none" xmlns="http://www.w3.org/2000/svg">
<path d="M18.75 11.25V9.375H26.25V11.25H30V9.375C29.9976 7.30491 28.3201 5.62736 26.25 5.625H18.75C16.6799 5.62736 15.0024 7.30491 15 9.375V11.25H18.75Z" fill="#14C3BC"/>
<path d="M16.875 28.125C15.8397 28.1253 15.0003 27.2862 15 26.251V22.5C15 21.4645 15.8395 20.625 16.875 20.625C17.9105 20.625 18.75 21.4645 18.75 22.5V26.25C18.7503 27.2853 17.9103 28.1247 16.875 28.125ZM28.125 28.125C27.0897 28.1253 26.2503 27.2862 26.25 26.251V22.5C26.25 21.4645 27.0895 20.625 28.125 20.625C29.1605 20.625 30 21.4645 30 22.5V26.25C30.0003 27.2853 29.1603 28.1247 28.125 28.125Z" fill="#B6ECEA"/>
<path d="M37.5 11.25H7.5C5.42893 11.25 3.75 12.9289 3.75 15V20.625C3.75 22.6961 5.42893 24.375 7.5 24.375H15V22.5C15 21.4645 15.8395 20.625 16.875 20.625C17.9105 20.625 18.75 21.4645 18.75 22.5V24.375H26.25V22.5C26.25 21.4645 27.0895 20.625 28.125 20.625C29.1605 20.625 30 21.4645 30 22.5V24.375H37.5C39.5711 24.375 41.25 22.6961 41.25 20.625V15C41.25 12.9289 39.5711 11.25 37.5 11.25Z" fill="#62D7D2"/>
<path d="M37.5 24.375H30V26.25C30 27.2855 29.1605 28.125 28.125 28.125C27.0895 28.125 26.25 27.2855 26.25 26.25V24.375H18.75V26.25C18.75 27.2855 17.9105 28.125 16.875 28.125C15.8395 28.125 15 27.2855 15 26.25V24.375H7.5C5.42893 24.375 3.75 22.6961 3.75 20.625V35.625C3.75 37.6961 5.42893 39.375 7.5 39.375H37.5C39.5711 39.375 41.25 37.6961 41.25 35.625V20.625C41.25 22.6961 39.5711 24.375 37.5 24.375Z" fill="#14C3BC"/>
</svg>
