<svg width="50" height="50" viewBox="0 0 50 50" fill="none" xmlns="http://www.w3.org/2000/svg">
<path d="M25 50C38.8071 50 50 38.8071 50 25C50 11.1929 38.8071 0 25 0C11.1929 0 0 11.1929 0 25C0 38.8071 11.1929 50 25 50Z" fill="#FFCC4D"/>
<path d="M14.6041 32.8078C14.6666 33.0564 16.2263 38.8898 24.9999 38.8898C33.7749 38.8898 35.3332 33.0564 35.3957 32.8078C35.4721 32.5064 35.336 32.1939 35.0666 32.0384C34.7957 31.8842 34.4568 31.93 34.2332 32.1453C34.2068 32.1717 31.5193 34.7231 24.9999 34.7231C18.4805 34.7231 15.7916 32.1717 15.7666 32.1467C15.6332 32.0148 15.4555 31.9453 15.2777 31.9453C15.161 31.9453 15.043 31.9745 14.936 32.0342C14.6638 32.1898 14.5277 32.505 14.6041 32.8078Z" fill="#664500"/>
<path d="M16.6666 23.6109C18.5842 23.6109 20.1388 21.4345 20.1388 18.7498C20.1388 16.0651 18.5842 13.8887 16.6666 13.8887C14.7489 13.8887 13.1943 16.0651 13.1943 18.7498C13.1943 21.4345 14.7489 23.6109 16.6666 23.6109Z" fill="#664500"/>
<path d="M33.3336 23.6109C35.2512 23.6109 36.8058 21.4345 36.8058 18.7498C36.8058 16.0651 35.2512 13.8887 33.3336 13.8887C31.4159 13.8887 29.8613 16.0651 29.8613 18.7498C29.8613 21.4345 31.4159 23.6109 33.3336 23.6109Z" fill="#664500"/>
</svg>
