<svg width="33" height="33" viewBox="0 0 33 33" fill="none" xmlns="http://www.w3.org/2000/svg">
<path d="M16.5 0C13.2366 0 10.0465 0.967708 7.3331 2.78075C4.61969 4.59379 2.50484 7.17074 1.25599 10.1857C0.00714919 13.2007 -0.319606 16.5183 0.31705 19.719C0.953706 22.9197 2.52518 25.8597 4.83274 28.1673C7.14031 30.4748 10.0803 32.0463 13.281 32.6829C16.4817 33.3196 19.7993 32.9929 22.8143 31.744C25.8293 30.4952 28.4062 28.3803 30.2192 25.6669C32.0323 22.9535 33 19.7634 33 16.5C33 14.3332 32.5732 12.1876 31.744 10.1857C30.9148 8.18385 29.6994 6.3649 28.1673 4.83274C26.6351 3.30057 24.8162 2.08519 22.8143 1.25599C20.8124 0.426785 18.6668 0 16.5 0ZM18.15 16.0423V21.45C18.15 21.8876 17.9762 22.3073 17.6667 22.6167C17.3573 22.9262 16.9376 23.1 16.5 23.1C16.0624 23.1 15.6427 22.9262 15.3333 22.6167C15.0238 22.3073 14.85 21.8876 14.85 21.45V16.0423C14.2209 15.6791 13.7292 15.1184 13.4512 14.4473C13.1732 13.7761 13.1244 13.032 13.3125 12.3303C13.5005 11.6286 13.9148 11.0086 14.4911 10.5663C15.0674 10.1241 15.7736 9.8844 16.5 9.8844C17.2264 9.8844 17.9326 10.1241 18.5089 10.5663C19.0852 11.0086 19.4995 11.6286 19.6876 12.3303C19.8756 13.032 19.8268 13.7761 19.5488 14.4473C19.2708 15.1184 18.7791 15.6791 18.15 16.0423Z" fill="#9B9B9B"/>
</svg>
