<svg width="27" height="27" viewBox="0 0 27 27" fill="none" xmlns="http://www.w3.org/2000/svg">
<circle cx="13.9329" cy="13.9339" r="12.5222" fill="#14C3BC" stroke="white" stroke-width="1.08889"/>
<path d="M9.0332 18.8337V16.1115L14.4776 10.6671L16.4299 8.71479L16.4311 8.71364C16.6998 8.4449 16.8344 8.31029 16.9896 8.25987C17.1263 8.21546 17.2735 8.21546 17.4102 8.25987C17.5653 8.31025 17.6997 8.44471 17.9681 8.71307L19.1521 9.89709C19.4216 10.1666 19.5564 10.3014 19.6069 10.4568C19.6513 10.5935 19.6513 10.7407 19.6069 10.8774C19.5565 11.0327 19.4219 11.1673 19.1527 11.4364L19.1521 11.437L17.1999 13.3893L11.7554 18.8337L9.0332 18.8337Z" fill="white"/>
<path d="M14.4776 10.6671L9.0332 16.1115V18.8337L11.7554 18.8337L17.1999 13.3893M14.4776 10.6671L16.4299 8.71479L16.4311 8.71364C16.6998 8.4449 16.8344 8.31029 16.9896 8.25987C17.1263 8.21546 17.2735 8.21546 17.4102 8.25987C17.5653 8.31025 17.6997 8.44471 17.9681 8.71307L19.1521 9.89709C19.4216 10.1666 19.5564 10.3014 19.6069 10.4568C19.6513 10.5935 19.6513 10.7407 19.6069 10.8774C19.5565 11.0327 19.4219 11.1673 19.1527 11.4364L19.1521 11.437L17.1999 13.3893M14.4776 10.6671L17.1999 13.3893" stroke="#14C3BC" stroke-width="0.871111" stroke-linecap="round" stroke-linejoin="round"/>
</svg>
