<?xml version="1.0" standalone="no"?>
<!DOCTYPE svg PUBLIC "-//W3C//DTD SVG 20010904//EN"
 "http://www.w3.org/TR/2001/REC-SVG-20010904/DTD/svg10.dtd">
<svg version="1.0" xmlns="http://www.w3.org/2000/svg"
 width="100.000000pt" height="100.000000pt" viewBox="0 0 864.000000 864.000000"
 preserveAspectRatio="xMidYMid meet">

<g transform="translate(0.000000,864.000000) scale(0.100000,-0.100000)"
fill="#000000" stroke="none">
<path d="M4634 7618 c-4 -7 -9 -60 -10 -118 -2 -121 -10 -149 -102 -346 -88
-190 -97 -224 -96 -384 2 -384 176 -774 542 -1210 147 -176 153 -213 63 -383
-72 -134 -106 -228 -116 -318 -14 -135 -33 -163 -149 -221 -34 -17 -113 -61
-176 -99 l-115 -68 -118 58 c-704 346 -1419 205 -2057 -406 -315 -302 -499
-623 -586 -1023 -11 -49 -19 -157 -24 -310 -4 -133 -13 -248 -19 -266 -11 -30
-13 -30 -69 -27 -49 3 -64 0 -110 -27 -85 -49 -135 -146 -174 -330 -46 -219
20 -389 231 -601 107 -106 182 -151 286 -170 69 -13 152 0 220 33 l43 21 61
-51 c216 -180 456 -281 741 -311 52 -5 185 -13 295 -16 110 -3 299 -13 420
-22 244 -17 436 -13 527 12 160 44 238 108 238 197 0 18 -14 84 -31 146 -17
62 -29 115 -26 119 3 3 132 40 286 83 l281 77 102 -89 c246 -212 447 -328 666
-384 122 -32 244 -39 444 -26 176 11 225 28 261 89 58 100 -9 220 -181 328
-176 110 -210 135 -249 178 -55 64 -76 110 -81 184 -6 91 24 151 119 234 105
91 147 137 161 176 9 25 18 33 36 33 53 0 106 93 138 240 7 36 14 85 14 109
l0 44 26 -29 c26 -28 27 -28 35 -7 15 42 29 177 29 288 0 139 -13 235 -51 382
-34 132 -36 186 -9 230 39 64 121 101 350 158 173 43 277 92 387 180 89 71
155 151 211 255 l40 72 -18 66 c-10 37 -22 78 -28 92 -23 59 -434 714 -510
813 -54 72 -133 135 -232 186 -60 31 -104 45 -215 66 -151 29 -227 56 -250 89
-12 16 -15 60 -15 209 0 269 -31 455 -109 659 -77 199 -143 304 -359 571 -87
107 -127 184 -143 274 -18 105 -37 133 -92 133 -30 0 -45 -22 -80 -120 -51
-145 -87 -325 -87 -437 0 -32 -3 -68 -6 -81 -6 -22 -7 -22 -26 -5 -31 27 -104
157 -268 468 -86 165 -164 302 -181 318 -31 28 -72 36 -85 15z"/>
</g>
</svg>
