<svg width="41" height="41" viewBox="0 0 41 41" fill="none" xmlns="http://www.w3.org/2000/svg">
<path d="M30.0611 24.8676L26.0178 28.5853C23.9387 30.3977 21.496 31.7445 18.8537 32.5351L19.9265 37.5404C19.9813 37.796 20.0954 38.0351 20.2597 38.2384C20.4239 38.4417 20.6337 38.6036 20.872 38.7109C21.1103 38.8183 21.3706 38.868 21.6317 38.8563C21.8928 38.8445 22.1475 38.7715 22.3752 38.6431L28.884 34.9721C29.8001 34.4154 30.5156 33.5822 30.9275 32.5926C31.3394 31.603 31.4263 30.5081 31.1756 29.4659L30.0611 24.8676ZM12.6095 15.1242L16.0907 10.9911L11.7493 9.94363C10.6939 9.5756 9.54096 9.60194 8.50343 10.0178C7.4659 10.4336 6.61391 11.2108 6.10481 12.2059L2.43782 18.7058C2.30934 18.9334 2.23622 19.1881 2.22437 19.4493C2.21252 19.7105 2.26228 19.9707 2.36962 20.2091C2.47697 20.4475 2.63889 20.6572 2.84229 20.8215C3.0457 20.9857 3.28488 21.0997 3.54052 21.1544L8.66177 22.2523C9.5108 19.6461 10.8508 17.2266 12.6095 15.1242ZM28.3897 15.1915C28.8842 15.1915 29.3675 15.0449 29.7786 14.7702C30.1898 14.4955 30.5102 14.1051 30.6994 13.6482C30.8886 13.1914 30.9381 12.6888 30.8417 12.2038C30.7452 11.7189 30.5071 11.2734 30.1575 10.9238C29.8078 10.5741 29.3624 10.336 28.8774 10.2396C28.3925 10.1431 27.8898 10.1926 27.433 10.3818C26.9762 10.5711 26.5857 10.8915 26.311 11.3026C26.0363 11.7137 25.8897 12.1971 25.8897 12.6915C25.89 13.3545 26.1534 13.9902 26.6222 14.459C27.091 14.9278 27.7267 15.1913 28.3897 15.1915Z" fill="#F65E5E"/>
<path d="M38.1677 3.93959C38.0925 3.65413 37.9429 3.39373 37.7342 3.18499C37.5254 2.97625 37.265 2.82664 36.9796 2.75144C33.5607 1.86272 29.9602 1.95802 26.5931 3.02636C23.2259 4.0947 20.2292 6.0926 17.948 8.78988L12.6086 15.1294C9.94132 18.3108 8.24923 22.1946 7.73561 26.3143C7.70267 26.5675 7.72832 26.8248 7.81058 27.0665C7.89284 27.3082 8.02951 27.5278 8.21005 27.7083L13.3769 32.8752C13.5316 33.03 13.7153 33.1528 13.9175 33.2366C14.1196 33.3204 14.3364 33.3635 14.5552 33.3635C14.6032 33.3635 14.6512 33.361 14.7001 33.357C18.883 33.0113 22.847 31.3418 26.0167 28.5905L32.1219 22.9769C34.8287 20.7018 36.8339 17.7048 37.9042 14.3346C38.9745 10.9644 39.0659 7.35965 38.1677 3.93959ZM28.3888 15.1966C27.8943 15.1966 27.411 15.05 26.9999 14.7753C26.5887 14.5006 26.2683 14.1101 26.0791 13.6533C25.8899 13.1965 25.8404 12.6939 25.9368 12.2089C26.0333 11.7239 26.2714 11.2785 26.621 10.9289C26.9706 10.5792 27.4161 10.3411 27.9011 10.2447C28.386 10.1482 28.8887 10.1977 29.3455 10.3869C29.8023 10.5761 30.1928 10.8966 30.4675 11.3077C30.7422 11.7188 30.8888 12.2022 30.8888 12.6966C30.8885 13.3596 30.6251 13.9953 30.1563 14.4641C29.6875 14.9329 29.0517 15.1964 28.3888 15.1966Z" fill="#F99A9A"/>
</svg>
