<svg width="50" height="50" viewBox="0 0 50 50" fill="none" xmlns="http://www.w3.org/2000/svg">
<path d="M50 25C50 38.8069 38.8069 50 25 50C11.1944 50 0 38.8069 0 25C0 11.1944 11.1944 0 25 0C38.8069 0 50 11.1944 50 25Z" fill="#FFCC4D"/>
<path d="M24.0453 24.4625C23.8009 24.2638 23.4523 24.2583 23.1981 24.443C23.1814 24.4555 21.4481 25.6958 18.0564 25.6958C14.6661 25.6958 12.9314 24.4555 12.9175 24.4458C12.6634 24.2555 12.3134 24.2611 12.0689 24.4583C11.8217 24.6555 11.7384 24.9944 11.8661 25.2833C11.9495 25.4708 13.9495 29.8625 18.0564 29.8625C22.1648 29.8625 24.1634 25.4708 24.2467 25.2833C24.3745 24.9958 24.2911 24.6597 24.0453 24.4625ZM37.9342 24.4625C37.6898 24.2638 37.3425 24.2569 37.087 24.443C37.0703 24.4555 35.3356 25.6958 31.9453 25.6958C28.5564 25.6958 26.8203 24.4555 26.8064 24.4458C26.5523 24.2555 26.2036 24.2611 25.9578 24.4583C25.7106 24.6555 25.6273 24.9944 25.755 25.2833C25.8384 25.4708 27.8384 29.8625 31.9453 29.8625C36.0536 29.8625 38.0523 25.4708 38.1356 25.2833C38.2634 24.9958 38.18 24.6597 37.9342 24.4625ZM30.5564 38.8902H19.4453C18.6786 38.8902 18.0564 38.2694 18.0564 37.5013C18.0564 36.7333 18.6786 36.1124 19.4453 36.1124H30.5564C31.3245 36.1124 31.9453 36.7333 31.9453 37.5013C31.9453 38.2694 31.3245 38.8902 30.5564 38.8902ZM8.3342 19.4458C7.56753 19.4458 6.94531 18.8236 6.94531 18.0569C6.94531 17.2916 7.56337 16.6708 8.32865 16.668C8.54531 16.6652 13.2856 16.5486 16.9467 11.668C17.4064 11.0569 18.2759 10.9291 18.8911 11.3902C19.505 11.85 19.6286 12.7208 19.1689 13.3347C14.637 19.3763 8.58976 19.4458 8.3342 19.4458ZM41.6675 19.4458C41.412 19.4458 35.3661 19.3763 30.8342 13.3347C30.3731 12.7208 30.4981 11.85 31.112 11.3902C31.7245 10.9277 32.5939 11.0541 33.055 11.668C36.7231 16.5583 41.4731 16.6666 41.6745 16.668C42.4384 16.6763 43.055 17.3013 43.0509 18.0638C43.0481 18.8291 42.4314 19.4458 41.6675 19.4458Z" fill="#664500"/>
</svg>
