<svg width="50" height="50" viewBox="0 0 50 50" fill="none" xmlns="http://www.w3.org/2000/svg">
<path d="M50 25C50 38.8069 38.8069 50 25 50C11.1944 50 0 38.8069 0 25C0 11.1944 11.1944 0 25 0C38.8069 0 50 11.1944 50 25Z" fill="#FFCC4D"/>
<path d="M39.524 24.7178C39.4407 24.5303 37.4421 20.1387 33.3338 20.1387C29.2268 20.1387 27.2268 24.5303 27.1435 24.7178C27.0157 25.0053 27.099 25.3415 27.3449 25.5387C27.5879 25.7359 27.9365 25.7428 28.1921 25.5581C28.2088 25.5456 29.9449 24.3053 33.3338 24.3053C36.7032 24.3053 38.4365 25.5289 38.4754 25.5567C38.5977 25.6484 38.7449 25.6942 38.8893 25.6942C39.0421 25.6942 39.1963 25.6428 39.3227 25.5428C39.5685 25.3456 39.6532 25.0067 39.524 24.7178ZM22.8574 24.7178C22.774 24.5303 20.7754 20.1387 16.6671 20.1387C12.5602 20.1387 10.5602 24.5303 10.4768 24.7178C10.349 25.0053 10.4324 25.3415 10.6768 25.5387C10.9213 25.7359 11.2699 25.7428 11.524 25.5581C11.5421 25.5456 13.2768 24.3053 16.6671 24.3053C20.0365 24.3053 21.7699 25.5289 21.8088 25.5567C21.931 25.6484 22.0782 25.6942 22.2227 25.6942C22.3754 25.6942 22.5296 25.6428 22.656 25.5428C22.9032 25.3456 22.9852 25.0067 22.8574 24.7178ZM25.0004 30.5553C19.9685 30.5553 16.6296 29.9692 12.5004 29.1665C11.5574 28.9845 9.72266 29.1665 9.72266 31.9442C9.72266 37.4998 16.1046 44.4442 25.0004 44.4442C33.8949 44.4442 40.2782 37.4998 40.2782 31.9442C40.2782 29.1665 38.4435 28.9831 37.5004 29.1665C33.3713 29.9692 30.0324 30.5553 25.0004 30.5553Z" fill="#664500"/>
<path d="M12.5 31.9453C12.5 31.9453 16.6667 33.3342 25 33.3342C33.3333 33.3342 37.5 31.9453 37.5 31.9453C37.5 31.9453 34.7222 37.5009 25 37.5009C15.2778 37.5009 12.5 31.9453 12.5 31.9453Z" fill="white"/>
</svg>
