<svg width="267" height="272" viewBox="0 0 267 272" fill="none" xmlns="http://www.w3.org/2000/svg">
<path d="M98.4998 8.50002C152.1 -14.7 164.167 18.1667 163.5 37.5C163.5 55.9 200.833 74.8334 219.5 82C228.166 83.5 247.6 90.8 256 108C266.5 129.5 229.5 158 229 161.5C228.5 165 207 182 208 211C209 240 170.5 274 136.5 271.5C102.5 269 95.9998 236 93.9998 219.5C91.9998 203 81.9998 201.5 75.9998 188.5C69.9998 175.5 69.4998 176.5 31.9998 148.5C-5.50015 120.5 -9.93013e-05 101 1.49985 78C2.99979 55 31.4998 37.5 98.4998 8.50002Z" fill="#E2F8FF"/>
<rect x="45" y="50.1279" width="147.228" height="183.894" rx="14" transform="rotate(-11.1881 45 50.1279)" fill="#45505A"/>
<rect x="65" y="62.895" width="112.843" height="152" rx="4" transform="rotate(-11.1881 65 62.895)" fill="white"/>
<path fill-rule="evenodd" clip-rule="evenodd" d="M113.506 24.045C109.004 24.9356 105.881 28.666 106.103 32.6448L95.2442 34.7926C91.9935 35.4356 89.8794 38.5921 90.5224 41.8428L93.6269 57.5387C94.2699 60.7894 97.4263 62.9035 100.677 62.2605L139.917 54.4992C143.168 53.8563 145.282 50.6998 144.639 47.4491L141.534 31.7532C140.891 28.5024 137.735 26.3884 134.484 27.0314L123.625 29.1792C122.316 25.4153 118.008 23.1545 113.506 24.045ZM115.252 32.874C116.336 32.6597 117.04 31.6075 116.826 30.5239C116.612 29.4404 115.56 28.7357 114.476 28.95C113.392 29.1643 112.688 30.2165 112.902 31.3001C113.116 32.3836 114.169 33.0883 115.252 32.874Z" fill="#08C4BD"/>
<g clip-path="url(#clip0_5666_15568)">
<path d="M129.428 66.9148C132.556 66.5151 136.115 68.5377 135.459 72.0032C134.642 76.3165 127.595 77.4512 125.157 73.8676C122.967 70.6498 126.072 67.3436 129.428 66.9148Z" fill="#14C3BC"/>
<path d="M152.812 82.419C153.847 82.513 153.257 81.2825 153.075 80.7382C151.684 76.578 148.416 73.52 143.789 75.8618C139.209 78.179 137.967 83.8561 136.646 88.2592C135.913 90.6986 134.91 93.185 133.169 95.1051C133.098 94.1355 133.069 93.1614 133.178 92.1926C133.562 88.7928 135.181 85.3976 136.012 82.1068C137.587 75.8683 131.741 76.5868 127.634 77.5643C121.468 79.0315 115.652 81.6274 109.579 83.3961C105.585 84.5592 99.3105 85.8591 96.0302 88.3147C93.8331 89.9588 93.2556 92.8119 95.0952 94.9412C96.5293 96.6004 99.37 95.6449 101.133 94.995C103.008 94.3033 104.899 93.3481 106.677 92.4398C108.296 91.6144 110.792 89.9816 112.436 89.532C113.664 89.1959 113.949 89.3372 113.394 90.5184C111.464 94.6173 108.277 97.8737 106.122 101.772C104.586 104.549 102.35 110.188 102.972 113.298C103.423 115.549 105.873 115.976 107.835 115.399C112.568 114.008 115.701 108.97 117.92 104.942C119.671 101.767 120.423 97.791 121.368 94.3146C121.958 92.1472 122.428 89.4266 124.599 88.2099C125.189 87.8794 125.797 88.0182 126.053 88.6523C126.818 90.5535 125.09 93.8508 124.395 95.6915C122.819 99.8678 120.461 107.074 123.384 111.009C125.262 113.538 128.978 112.732 131.451 111.496C137.235 108.605 141.349 101.963 142.969 95.96C143.487 94.0408 144.073 91.7962 144.4 89.85C144.499 89.2601 144.493 88.3116 144.649 87.8092C144.696 87.6607 144.836 87.4953 144.943 87.3794C145.057 87.5246 145.048 87.7371 145.049 87.9148C145.054 88.8945 144.82 90.372 144.693 91.3833C144.137 95.8218 141.887 102.103 144.886 106.048C146.333 107.951 148.037 107.953 150.268 107.412C154.545 106.375 154.72 100.114 154.475 96.6605C154.201 92.823 153.803 88.7705 153.264 84.9497C153.145 84.1029 152.983 83.2545 152.813 82.4179L152.812 82.419Z" fill="black"/>
<path d="M152.811 82.4193C152.981 83.2558 153.142 84.1043 153.262 84.9511C153.802 88.7708 154.2 92.8243 154.473 96.6618C154.718 100.116 154.543 106.377 150.266 107.414C148.035 107.955 146.332 107.953 144.883 106.049C141.884 102.105 144.135 95.8221 144.691 91.3846C144.818 90.3734 145.051 88.8959 145.047 87.9162C145.046 87.7384 145.055 87.525 144.94 87.3808C144.834 87.4967 144.693 87.6621 144.647 87.8106C144.49 88.3129 144.497 89.2615 144.398 89.8513C144.071 91.7975 143.485 94.0422 142.967 95.9614C141.346 101.964 137.232 108.605 131.449 111.497C128.975 112.734 125.26 113.538 123.382 111.01C120.459 107.074 122.816 99.8681 124.393 95.6929C125.088 93.8521 126.815 90.5549 126.05 88.6536C125.795 88.0206 125.186 87.8808 124.596 88.2113C122.426 89.428 121.955 92.1476 121.366 94.316C120.421 97.7923 119.668 101.768 117.918 104.944C115.699 108.972 112.566 114.009 107.833 115.401C105.871 115.978 103.42 115.551 102.97 113.299C102.348 110.189 104.584 104.551 106.119 101.773C108.274 97.8761 111.463 94.6197 113.391 90.5198C113.947 89.3375 113.662 89.1972 112.434 89.5333C110.79 89.9829 108.294 91.6158 106.675 92.4412C104.897 93.3484 103.005 94.3047 101.131 94.9963C99.3688 95.6462 96.5271 96.6017 95.093 94.9426C93.2534 92.8142 93.8309 89.9602 96.028 88.316C99.3083 85.8605 105.584 84.5605 109.577 83.3974C115.65 81.6288 121.466 79.0328 127.631 77.5657C131.738 76.5882 137.584 75.8697 136.009 82.1081C135.178 85.3989 133.56 88.7931 133.176 92.194C133.067 93.1628 133.096 94.1369 133.167 95.1064C134.909 93.1863 135.912 90.6999 136.643 88.2606C137.965 83.8574 139.207 78.1813 143.786 75.8631C148.414 73.5214 151.682 76.5783 153.073 80.7395C153.255 81.2839 153.845 82.5143 152.81 82.4204L152.811 82.4193Z" fill="black"/>
<path d="M151.841 77.3738C155.677 76.6903 158.437 80.8875 159.731 83.8439C160.944 86.614 162.035 92.0985 159.62 94.4999C157.688 96.4198 152.577 97.4722 150.708 95.0676C149.367 93.344 149.35 90.2738 149.976 88.2593C150.432 86.7914 151.291 85.5674 151.1 83.9424C150.916 82.382 149.699 80.925 149.917 79.3212C150.047 78.3677 150.884 77.545 151.841 77.3738Z" fill="#14C3BC"/>
</g>
<path d="M97 139.388L164.689 126" stroke="#ACC5DD" stroke-width="5" stroke-linecap="round"/>
<path d="M100.687 158.027L168.375 144.639" stroke="#ACC5DD" stroke-width="5" stroke-linecap="round"/>
<path d="M104.373 176.666L142.632 169.099" stroke="#ACC5DD" stroke-width="5" stroke-linecap="round"/>
<circle opacity="0.74" cx="226" cy="147" r="41" fill="#CCFFFD"/>
<circle opacity="0.29" cx="226" cy="147" r="38" fill="#14C3BC"/>
<circle opacity="0.9" cx="226.5" cy="146.5" r="33.5" fill="#14C3BC"/>
<path d="M209.75 147.177L221.594 159.021L245.28 135.333" stroke="white" stroke-width="4" stroke-linecap="round" stroke-linejoin="round"/>
<defs>
<clipPath id="clip0_5666_15568">
<rect width="67.1282" height="47.2734" fill="white" transform="translate(90 74.0249) rotate(-11.1881)"/>
</clipPath>
</defs>
</svg>
