<svg width="24" height="28" viewBox="0 0 24 28" fill="none" xmlns="http://www.w3.org/2000/svg">
<circle cx="12" cy="9" r="9" fill="#14C3BC"/>
<path d="M13.5117 4.51562V13H11.7422V6.19141H11.6953L9.75 7.41016V5.85156L11.8477 4.51562H13.5117Z" fill="#F3FDFC"/>
<path d="M6.05748 21.5784V22.156H5.26814V22.8234H6.05748V23.4202H5.26814V24.1967H4.5558V20.7698H5.26814V21.5784H6.05748ZM5.26814 24.447V26.5711H4.5558V25.0246H1.40485V24.447H5.26814ZM2.32254 21.1035C3.21456 21.0971 3.88198 21.6811 3.88839 22.4961C3.88198 23.3239 3.21456 23.9015 2.32254 23.9015C1.42411 23.9015 0.750279 23.3239 0.756696 22.4961C0.750279 21.6811 1.42411 21.0971 2.32254 21.1035ZM2.32254 21.7068C1.82199 21.7132 1.44978 22.0148 1.45619 22.4961C1.44978 22.9902 1.82199 23.2983 2.32254 23.2919C2.81669 23.2983 3.1889 22.9902 3.1889 22.4961C3.1889 22.0148 2.81669 21.7132 2.32254 21.7068ZM9.61272 21.1998V21.5463C9.60631 21.9442 9.60631 22.5153 9.47154 23.2533L8.76563 23.1892C8.87793 22.5891 8.90039 22.1463 8.91323 21.7902H6.6543V21.1998H9.61272ZM8.14955 22.5218V23.6769C8.74958 23.6544 9.36565 23.6095 9.92718 23.5293L9.96568 24.0427C8.75921 24.2609 7.3923 24.2801 6.37193 24.2866L6.30776 23.7154C6.65109 23.7122 7.03613 23.709 7.44364 23.7026V22.5218H8.14955ZM10.9989 20.7698V22.5795H11.7497V23.1763H10.9989V25.1144H10.2673V20.7698H10.9989ZM11.185 25.8781V26.4556H7.17411V24.7294H7.89286V25.8781H11.185ZM17.3457 23.5485V24.1197H12.0513V23.5485H14.3488V22.9967H12.6995V21.0329H16.704V21.5912H13.4118V22.4319H16.736V22.9967H15.0483V23.5485H17.3457ZM14.6889 24.4534C15.9403 24.4534 16.6911 24.832 16.6975 25.5123C16.6911 26.1861 15.9403 26.5711 14.6889 26.5711C13.4247 26.5711 12.6674 26.1861 12.6674 25.5123C12.6674 24.832 13.4247 24.4534 14.6889 24.4534ZM14.6889 24.9989C13.8418 24.9989 13.3862 25.1786 13.3926 25.5123C13.3862 25.846 13.8418 26.0193 14.6889 26.0193C15.5167 26.0193 15.9788 25.846 15.9852 25.5123C15.9788 25.1786 15.5167 24.9989 14.6889 24.9989ZM19.611 21.1741C20.5287 21.1677 21.2026 21.7517 21.209 22.5731C21.2026 23.4009 20.5287 23.9785 19.611 23.9785C18.6998 23.9785 18.0195 23.4009 18.0195 22.5731C18.0195 21.7517 18.6998 21.1677 19.611 21.1741ZM19.611 21.7902C19.1041 21.7902 18.7254 22.0918 18.7254 22.5731C18.7254 23.0608 19.1041 23.356 19.611 23.356C20.1244 23.356 20.5095 23.0608 20.5095 22.5731C20.5095 22.0918 20.1244 21.7902 19.611 21.7902ZM22.5631 20.7698V26.5776H21.8507V20.7698H22.5631ZM17.7564 24.7807C18.8025 24.7807 20.2528 24.7679 21.5042 24.5882L21.5619 25.108C20.2592 25.3583 18.8666 25.3647 17.8463 25.3647L17.7564 24.7807Z" fill="#999999"/>
</svg>
